<?xml version="1.0" encoding="UTF-8"?>
<svg id="Layer_1" data-name="Layer 1" xmlns="http://www.w3.org/2000/svg" viewBox="0 0 193.98 231.05">
  <defs>
    <style>
      .cls-1 {
        fill: none;
      }

      .cls-2 {
        fill: #010101;
      }
    </style>
  </defs>
  <polygon class="cls-1" points="98.83 213.24 98.83 213.24 98.83 213.24 98.83 213.24"/>
  <path class="cls-1" d="M61.48,191.29c.1.42.41.51.77.69-.3-.32-.6-.65-.89-.97.04.08.09.2.13.28Z"/>
  <path class="cls-1" d="M126.03,166.89s.03.02.05.03l1.29-2.45c3.6,1.58,6.48,3.07,9.03,4.65v-.02c9.56,6.45,19.4,13.01,27.81,20.89l.3-.35c-14.43-18.42-35.74-29.51-59.1-33.02,8.86,3.55,13.8,5.13,20.62,10.26Z"/>
  <path class="cls-1" d="M71.82,117.86c-.18-.03-.26-.02-.48-.12.83,3.19.21,5.94-.59,8.13,1.07-1.13,2.38-3.08,3.3-4.36-.42-1.24-.91-2.45-1.45-3.65h-.77Z"/>
  <polygon class="cls-1" points="65.59 189.34 65.59 189.34 65.59 189.34 65.59 189.34"/>
  <path class="cls-1" d="M54.54,129.7c.08-.7.26-2.22-.09-3.53-.81.03-1.68.02-2.56-.25.37,2.04.7,4.73,2.8,5.8.1-.49.24-.96.4-1.42l-.59-.14c0-.09.02-.25.04-.46Z"/>
  <path class="cls-1" d="M54.55,110.03c-.16.14-.32.28-.48.42,1.32-.54,3.9-.39,3.29-2.47-1,.45-1.88,1.23-2.82,2.05Z"/>
  <path class="cls-1" d="M48.7,95.62c-9.71.69-13.75,10.45-13.88,18.7,2.08-8.52,7.93-15.98,17-18.02-1.03-.47-1.97-.71-3.12-.67Z"/>
  <path class="cls-1" d="M138.32,178.27c2.39,1.36,4.83,3.14,7.31,4.09-2.49-2.54-5.82-4.66-8.36-7.07-.78.58-1.64,1.02-2.61,1.21,1.23.3,2.5,1.1,3.66,1.77Z"/>
  <path class="cls-1" d="M131.93,176.59c-2.15-.26-4.4-1.17-6.49-1.53.73.59,1.43,1.23,2.1,1.89l.38-.67c1.15.5,2.23,1.08,3.28,1.72l-1.59-1.1,2.32-.3Z"/>
  <polygon class="cls-1" points="88.5 141 88.5 141 88.5 141 88.5 141"/>
  <path class="cls-1" d="M165.81,203.32c-6.32,1.82-22.58-18.66-31.16-22.89,6.28,6.74,16.6,11.52,20.73,19.68,3.94,1.36,18.78,10.98,13.42-.05-.4,1.58-1.52,2.84-2.98,3.26Z"/>
  <path class="cls-2" d="M107.94,190.41c-7.56,4.9-9.87,14.31-9.1,22.83-5.76-8.58-.31-15.82-1.87-24.58-2.93,14.33-8.92,28.03,7.04,37.57-2.63-11.82-4.51-25.89,3.93-35.81Z"/>
  <path class="cls-2" d="M53.33,93.75c3.33.86,3.75,2.68,3.9-2.55.98-10.92,3.68-21.66,6.55-32.21.01-1.58-2.68,2.53-3.71,3.76-3.8,4.54-8.04,11-10.77,15.66-3.45-17.81.92-36.69,4.48-54.55.67-3.43-.74-.77-1.42.53-6.09,11.08-11.88,23.04-16.18,34.58-1.32-19.64,2.43-39.87,5.97-58.98-10.35,17.29-17.54,37.47-18.11,57.45-.07,1.67-.21,2.49-.69.48-3.7-15.31-4.48-31.89-6.56-47.11-6.15,17.49-14.21,39.94-.87,56.13.35.73-1.26-.79-1.62-1.1C6.65,59.03,1.2,49.72,0,39.57c-.24,19.78,5.02,36.55,16.77,53.06,2.5,3.51,4.85,10.13,4.85,10.13-4.6-3.23-20.91-26.43-14.98-13.11,4.9,11.01,13.6,21.11,23.9,27.06,3.61,2.29,4.08,1.32,3.65-2.55-.86-9.37,8.14-21.8,19.13-20.4Z"/>
  <path class="cls-2" d="M142.84,107.4c21.35.36,41.04-16.89,51.14-34.44-10.05,10.09-22.63,19.2-37.38,20.27-.47.1-9.98.45-6.95-.78,20.62-8.35,34.54-27.6,43.24-47.25-9.82,15.1-24.6,27.3-41.74,33.64,19.68-23.43,29.34-42.42,14.7-74.19,3.41,20.39-7.57,39.62-20.15,54.91,11.21-16.86,1.62-40.44-14.66-54.7,10.63,22.2,9.57,51.08-7.01,70.29-11.37,13.14-36.65,19.56-34.54,40.69,1.69,14.08,13.17,24.64,25.16,31.24.35.21,1.14.61.62.06-4.72-4.89-9.99-11.32-11.05-17.93,15.34,7.95,32.86,12.86,50.36,11.84-12.2-2.78-25.5-8.52-34.07-18.01,20.33,6.86,42.75-1.31,58.28-14.92-10.62,4.25-26.7,4.97-35.94-.72Z"/>
  <path class="cls-2" d="M42.07,112.95c-3.94,2.12-3.34,8.76-.64,11.65.57-2.51,3.63-8.7,6.61-6.16,1.39,2.86,2.22,7.16,6.43,6.23-4.04-3.6-6.44-12.28-13.05-7.83.26-2.22,2.75-3.7,4.69-4.46,0-.02-.09-.19-.09-.19-1.36-.1-2.76.12-3.95.76Z"/>
  <path class="cls-2" d="M90.88,149.24c6.62,5.79,16.44,5.7,25,8.01,25.13,5.47,43.37,22.05,58.54,41.69-5.97-31.56-34.69-43.81-62.88-50.38-14.43-2.63-20.87-10.01-23.52-24.16l.48,16.61c-2.59-3.55-4.46-15.28-4.95-19.39-.46,9.57-.38,20.78,7.34,27.63Z"/>
  <path class="cls-2" d="M106.33,175.03c8.97,5.51,21.09,3.82,27.26,13.76-2.24-6.04-8.56-12.76-14.1-16.19,4.39-2.38,12.43,4.59,16.53,1.75-7.38-2.63-13.35-9.09-20.58-12.08-4.69-1.94-18.27-7.38-22.12-8.79,9.2,11.27,13.62,3.76,21.36,20.44-11.51-2.76-43.09-34.51-42.74-42.2-.95,7.02,23.06,35.39,27.15,41.22-10.4-1.21-36.89-34.88-37.54-41.22.43,4.77,18.22,33.28,19.52,37.9-4.78-3.14-18.62-24.03-21.67-28.81.76,4.9,8,24.93,11.08,28.86-5.6-1.65-11.28-16.21-14.8-24.06-2.5-4.2-4.3-14.63-3.57-17.53-2.3,9.24,2.74,31.94,9.26,38.42,8.02,7.97,13.05,13.02,12.33,23.11.07,3.31-.31,7.33-3.35,8.77,6.59.57,10.23-7.98,10.5-13.51.01-3.59-1.31-7.04-1.25-10.63,2.17,6.5,9.99,10.95,9.64,17.78.65-5.81-.27-11.77-2.6-17.14,5.84,6.65,14.08,8.61,15.86,18.58,1.69-6.43-.76-10.26-2.81-15.77,6.16,7.66,19.94,14.29,20.74,24.68.45-7.79-6.12-22.67-14.09-27.32Z"/>
  <path class="cls-2" d="M154.16,201.2c-1.29-4.69-5.97-7.29-9.58-10.13-5.77-4.5-10.51-10.51-17.25-13.44,4.94,3.85,17.6,13.86,15.62,20.43-8.84-.27-15.67-8.53-23.18-12.6,8.01,8.05,16.57,16.29,25.97,22.64,4.71,2.35,9.99-1.76,8.42-6.9Z"/>
  <path class="cls-2" d="M119.67,185.39s.07.05.1.07c-.09-.12-.19-.23-.28-.35l.18.28Z"/>
  <path class="cls-2" d="M147.57,184.35c-5-.38-9.24-5.64-13.96-6.48,10.92,6.61,19.08,17.02,29.55,23.87,17.84-2.02-22.96-28.45-27.56-31.39l.4.28c-2.88-1.83-6.01-3.39-9.22-4.79,3.53,3.23,22.45,14.35,20.8,18.52Z"/>
  <path class="cls-2" d="M166.76,192.66c-.78-.92-1.56-1.84-2.51-2.58,8.33,9.31,12.23,23.07-5.36,13.31,4.2,4.46-.8,9.47-5.69,7.97h-.05c20.54,13.99,31.04-.95,13.62-18.69Z"/>
  <path class="cls-2" d="M89.67,203.56c-7.99-3.89-18.19,2.9-20.82,10.65,4.64-9.5,26.47-3.81,20.82-10.65Z"/>
  <path class="cls-2" d="M88.93,212.02c-1.73-2.8-4.08-2.71-6.44-.18-6.88,4.57-5.1,13.06-1.22,19.21-4.46-13.92,11.17-14.64,7.66-19.04Z"/>
  <path class="cls-2" d="M49.97,182.1c4.5-4.82-17.71-4.99-13.2,9.11,0-.02,0-.03-.01-.05h.03c.45-5.89,9.06-6.17,13.19-9.06Z"/>
  <path class="cls-2" d="M65.65,195.4c-6.52-2.2-4.95-5.39-9.79-7.75-2.68-1.11-8.16-.71-8.13,3.07,6.43-3.87,9.27,6.21,14.43,8.04,3.14,2.23,8.48-.85,3.48-3.36Z"/>
  <path class="cls-2" d="M67.86,178.07l-.11-.19c-1.66,3.44-4.42,8.13-2.16,11.46-10.91-16.06-39.27,3.1-18.8,12.2-3.83-1.7-2.71-6.85-1.29-10.87,2.66-4.9,9.75-6.35,13.88-3.4,2.92,1.8,4.59,5.28,7.68,6.8,4.88-1.61,2.22-12.37.8-16Z"/>
  <path class="cls-2" d="M45.04,100.9c-4.91,3.26-6.46,8.9-7.24,15.46.48-4.02,6.26-7.98,8.74-4.98,2.07-8.78,8.87-10.27,14.15-9.21,12.74,3.45,16.74,20.64,17.04,32.24,4.28-9.99-2.5-25.61-6.19-31.61,1.71,2,4.28,1.6,9.89,18.25,2.84-21.12-23.33-30.01-36.39-20.16Z"/>
  <path class="cls-2" d="M66.69,136.55c5.25-14.36-.81-26.21-3.52-27.32.74.23,6.67,4.74,9.35,9.46-.12-.21-.06-.74-.09-.99-.05-.36-.13-.73-.22-1.08-.19-.78-.46-1.54-.77-2.27-.69-1.62-1.6-3.14-2.67-4.54-2.01-2.61-4.82-5.14-8.17-5.73-3.89-.69-7.56,1.45-9.97,4.35-.84,1.01-1.63,2.06-2.55,3-.59.61-1.22,1.17-1.88,1.7-.4.31-.8.61-1.22.9-.33.23-.99.86-1.38.9,5.98-.61,7.69-.24,11.19,4.45,3.12,4.18,2.54,6.05,1.83,9.44,3.04-6.44,2.31-6.07,2.85-10.18.75,2.76,1.39,3.24-.41,11.09,5.09-6.94,2.36-15.58-1.03-17.49,0,0,10.46,6.24,8.66,24.3ZM59.72,109.38c-.09.31-.27.59-.53.78-2.47,1.78-7.06,2.31-9.92,2.08l-.26.15c2.52-1.72,13.07-11.32,10.7-3.01Z"/>
</svg>